<?xml version="1.0" encoding="UTF-8"?>
<!DOCTYPE svg PUBLIC "-//W3C//DTD SVG 1.0//EN" "http://www.w3.org/TR/2001/REC-SVG-20010904/DTD/svg10.dtd">
<!-- Creator: CorelDRAW 2018 (64-Bit) -->
<svg xmlns="http://www.w3.org/2000/svg" xml:space="preserve" width="2.77937in" height="2.68795in" version="1.0" style="shape-rendering:geometricPrecision; text-rendering:geometricPrecision; image-rendering:optimizeQuality; fill-rule:evenodd; clip-rule:evenodd"
viewBox="0 0 1014.42 981.05"
 xmlns:xlink="http://www.w3.org/1999/xlink">
 <defs>
  <style type="text/css">
   <![CDATA[
    .fil0 {fill:white;fill-rule:nonzero}
   ]]>
  </style>
 </defs>
 <g id="Layer_x0020_1">
  <metadata id="CorelCorpID_0Corel-Layer"/>
  <path class="fil0" d="M450.58 643.86l-53.38 14.96c4.89,13.59 8.43,37.95 8.43,70.28l0 160.15 59.64 0 0 -169.52c11.11,-13.59 23.13,-20.15 36.48,-20.15 6.66,0 11.55,1.41 17.37,4.69l16.43 -55.26c-9.34,-4.22 -13.35,-5.16 -22.26,-5.16 -6.66,0 -14.66,1.41 -19.58,3.75 -11.11,5.62 -25.33,18.24 -33.8,30.42 -0.87,-13.59 -4.01,-24.33 -9.34,-34.17zm-207.07 -79.15l0 0 -6.49 0 0 324.54 62.32 0 0 -143.78 78.72 0 0 -53.38 -78.72 0 0 -74.47 98.3 0 3.82 -28.35c-59.1,-4.52 -112.79,-14.02 -157.94,-24.56zm-145.95 367.61l0 0 28.92 33.74c28.01,-11.25 63.15,-36.55 72.09,-76.34 3.11,-13.08 4.42,-21.55 4.42,-63.69l0 -260.58 -63.16 0 0 267.61c0,35.11 -1.34,48.23 -6.23,59.94 -5.79,13.12 -20.05,29.05 -36.04,39.32zm567.42 -164.36l0 0c0,56.66 -11.11,80.99 -36.92,80.99 -11.58,0 -24.93,-6.53 -30.25,-19.65 -4.89,-12.18 -7.56,-32.8 -7.56,-60.41 0,-23.9 2.21,-40.73 6.22,-53.38 4.89,-14.99 16.47,-24.37 30.69,-24.37 10.68,0 20.02,4.69 25.8,12.65 8,10.78 12.02,31.86 12.02,64.16zm36.48 93.21l0 0c19.58,-23.43 28.48,-51.54 28.48,-92.74 0,-38.89 -8.03,-65.09 -26.27,-87.59 -19.55,-24.33 -44.92,-36.05 -77.41,-36.05 -61.38,0 -102.31,50.1 -102.31,125.51 0,75.4 40.46,124.1 102.31,124.1 35.17,0 57.87,-12.65 75.2,-33.24zm170.86 -134.44l0 0c0,22.02 -12.92,34.2 -36.48,34.2 -20.92,0 -35.17,-9.84 -35.17,-34.2 0,-22.46 12.92,-35.58 35.61,-35.58 22.69,0 36.05,13.12 36.05,35.58zm105.42 -51.04l0 0 -24.9 -39.79c-13.79,13.12 -30.72,20.62 -47.16,20.62 -7.56,0 -11.58,-0.97 -28.05,-5.15 -16.47,-4.69 -28.01,-6.09 -40.93,-6.09 -58.3,0 -96.09,31.83 -96.09,81.03 0,35.58 16,57.6 48.93,66.5 -13.35,3.28 -28.05,10.28 -34.7,18.24 -4.89,5.62 -7.13,13.12 -7.13,22.02 0,7.5 1.77,14.06 4.45,19.68 3.11,5.15 7.56,9.37 12.92,11.68 10.68,4.25 28.05,7.06 54.72,7.5 13.79,0 22.26,0.47 25.37,0.47 16.47,0.94 24.9,3.75 31.13,7.06 6.23,3.72 10.68,12.15 10.68,21.52 0,9.37 -5.76,18.74 -14.22,24.36 -8,5.59 -20.92,7.93 -37.82,7.93 -27.61,0 -42.71,-10.28 -42.71,-29.49 0,-8.43 0.9,-10.31 2.64,-15.46l-55.16 0c-2.21,4.69 -5.35,11.25 -5.35,24.36 0,16.4 6.26,30.42 18.71,42.6 20.45,20.15 53.85,25.77 86.31,25.77 35.58,0 69.85,-8.43 89.86,-30.92 12.45,-14.06 18.24,-29.49 18.24,-49.63 0,-21.55 -6.23,-37.95 -19.58,-51.04 -16,-15.46 -34.24,-21.08 -68.94,-21.55l-32.06 -0.47c-6.22,0 -9.77,-2.34 -9.77,-5.62 0,-6.56 8.47,-12.18 23.59,-19.64 4.45,0.47 6.22,0.47 8.9,0.47 48.49,0 84.07,-29.99 84.07,-71.22 0,-15.9 -4.45,-28.08 -13.35,-39.32 7.56,0.94 9.81,1.41 15.56,1.41 16.47,0 28.92,-5.15 41.84,-17.81zm-749.96 -392.85l0 0c-74.57,18.24 -125.24,53.92 -125.24,94.98 0,25.4 19.44,48.73 51.88,67.14 -9.74,-15.6 -15.06,-32 -15.06,-48.93 0,-42.7 33.07,-81.96 88.42,-113.19zm786.64 160.41l0 0c0,-26.91 -16.6,-51.88 -44.81,-72.36 2.54,8.2 3.98,16.6 3.98,25.13 0,77.11 -107.7,143.08 -260.35,170.42 17.24,1.94 35.18,3.01 53.58,3.01 136.75,0 247.6,-56.49 247.6,-126.21zm-87.99 -41.94l0 0c0,-28.28 -24.23,-54.49 -65.5,-76.11 9.67,11.71 14.93,24.2 14.93,37.15 0,68.34 -145.62,123.77 -325.25,123.77 -179.59,0 -325.21,-55.42 -325.21,-123.77 0,-8.7 2.38,-17.17 6.83,-25.33 -28.85,19.08 -45.32,41 -45.32,64.29 0,74 165.53,134.01 369.76,134.01 204.23,0 369.76,-60.01 369.76,-134.01zm-161.52 -3.31l0 0c-75.34,48.7 -307.44,67.07 -407.41,4.62 -78.35,-48.96 -51.47,-126.58 -275.58,-297.6 -29.28,-22.36 5.42,-46.09 27.38,-30.89 21.92,15.19 1.84,19.24 46.12,63.56 89.39,89.46 88.52,9.04 102.65,39.46 29.69,63.96 95.19,128.38 95.19,128.38 65.63,42.71 118.01,52.01 214.77,-13.45 61.38,-41.53 36.28,66.03 186.79,-11.48 54.89,-28.28 52.61,-9.54 108.4,-87.29 23.16,-32.3 67.44,24.8 17.24,32.73 -20.08,3.18 -53.98,25.13 -68.54,59.84 -20.55,51.31 -11.65,89.29 -46.99,112.12zm-418.32 -131.53l0 0c-18.61,-8.2 -38.09,-39.89 -45.68,-52.61 20.82,-20.38 12.38,-54.49 0.64,-73.23 -11.75,-18.71 -26,-13.39 -41.63,-30.59 -15.63,-17.2 5.89,-62.05 25.94,-27.58 75.04,129.12 124.3,75.4 185.62,67.71 58.84,-7.4 110.85,24.66 126.81,-66.1 2.61,-14.86 17.03,-18.41 18.51,6.16 1.51,24.53 10.71,84.31 43.04,92.04 32.36,7.7 58.03,-7.6 65.63,-16.06 7.56,-8.47 11.51,-7.26 14.86,13.79 3.31,21.08 11.51,50.17 56.93,17.77 92.91,-66.3 66.3,-91.94 102.41,-108.97 20.58,-9.71 52.98,21.85 6.13,45.55 -67,33.87 -74.1,75.94 -116.44,102.65 -71.15,44.95 -49.4,1.81 -163.89,-14.49 -44.08,-6.29 -58.27,42.87 -92.67,28.68 -79.39,-32.8 -134.78,-26.51 -186.18,15.29zm248.13 -239.33l0 0c2.61,19.38 5.86,18.91 12.82,20.72 6.93,1.77 15.73,-9.14 16.03,-19.71 0.3,-10.61 -4.52,-17.27 -14.99,-16.9 -10.44,0.4 -14.19,5.66 -13.86,15.9zm345.03 35.28l0 0c8.33,8.13 30.59,2.64 35.78,-3.18 13.32,-14.93 13.79,-23.93 6.93,-33.94 -6.9,-9.97 -21.42,-8.17 -35.81,2.27 -14.36,10.41 -11.65,30.22 -6.89,34.84zm-6.26 98.6l0 0c-7.16,9.51 -7.36,16.23 -2.28,21.49 5.42,5.59 16.67,10.44 24.77,3.98 8.07,-6.39 8.07,-15.73 1.2,-23.97 -6.89,-8.23 -16.27,-8.23 -23.69,-1.51zm-707.22 -116.57l0 0c10.91,3.35 15.7,13.49 24.9,1.91 4.55,-5.72 4.99,-13.28 -1.04,-21.82 -3.82,-5.32 -21.52,-9 -29.05,-1.41 -7.53,7.6 -0.67,19.51 5.19,21.32zm-218.78 -6.53l0 0c19.55,11.98 32.37,30.12 47.09,13.92 4.95,-5.39 11.14,-15.6 0.47,-35.14 -7.8,-14.29 -33.5,-20.15 -42.57,-14.66 -9.07,5.45 -20.15,26.57 -4.99,35.88zm180.63 92.71l0 0c6.22,6.46 16.8,5.93 23.13,2.44 6.29,-3.55 4.99,-13.32 -1.07,-21.85 -3.78,-5.32 -15.06,-7.8 -22.59,-0.2 -7.53,7.6 -3.82,15.09 0.54,19.61z"/>
 </g>
</svg>
